<svg xmlns="http://www.w3.org/2000/svg" width="45.025" height="35.567" viewBox="0 0 45.025 35.567">
  <g id="baseline-local_library-24px" opacity="0.72">
    <path id="Path_1882" data-name="Path 1882" d="M0,0H45.025V35.567H0Z" fill="none"/>
    <path id="Path_1883" data-name="Path 1883" d="M19.884,16.153A28.542,28.542,0,0,0,3,10.892v16.3a28.542,28.542,0,0,1,16.884,5.261,28.644,28.644,0,0,1,16.884-5.261v-16.3A28.541,28.541,0,0,0,19.884,16.153Zm0-5.261c3.114,0,5.628-1.986,5.628-4.446S23,2,19.884,2s-5.628,1.986-5.628,4.446S16.77,10.892,19.884,10.892Z" transform="translate(2.628 0.964)" fill="#fff"/>
  </g>
</svg>
