<svg id="baseline-donut_small-24px" xmlns="http://www.w3.org/2000/svg" width="45.025" height="35.567" viewBox="0 0 45.025 35.567">
  <path id="Path_240" data-name="Path 240" d="M18.884,12.611V2C9.5,2.741,2,9.1,2,16.82S9.5,30.9,18.884,31.639V21.028c-1.876-.608-3.752-2.253-3.752-4.209S17.008,13.218,18.884,12.611Zm7.242,2.727H39.521C38.62,8.3,32.017,2.7,22.636,2V12.611A4.856,4.856,0,0,1,26.126,15.338Zm-3.489,5.691V31.639c9.38-.7,15.984-6.3,16.884-13.338H26.126a4.856,4.856,0,0,1-3.489,2.727Z" transform="translate(1.752 0.964)" fill="#e028db"/>
  <path id="Path_241" data-name="Path 241" d="M0,0H45.025V35.567H0Z" fill="none"/>
</svg>
