<svg id="baseline-donut_small-24px" xmlns="http://www.w3.org/2000/svg" width="41.624" height="41.624" viewBox="0 0 41.624 41.624">
  <path id="Path_240" data-name="Path 240" d="M17.609,14.418V2a17.439,17.439,0,0,0,0,34.686V24.269a5.63,5.63,0,0,1-3.469-4.925A5.63,5.63,0,0,1,17.609,14.418ZM24.3,17.609H36.686A17.073,17.073,0,0,0,21.077,2V14.418A4.868,4.868,0,0,1,24.3,17.609Zm-3.226,6.66V36.686A17.073,17.073,0,0,0,36.686,21.077H24.3a4.868,4.868,0,0,1-3.226,3.191Z" transform="translate(1.469 1.469)" fill="#e028db"/>
  <path id="Path_241" data-name="Path 241" d="M0,0H41.624V41.624H0Z" fill="none"/>
</svg>
