<svg xmlns="http://www.w3.org/2000/svg" xmlns:xlink="http://www.w3.org/1999/xlink" width="41.624" height="48.05" viewBox="0 0 41.624 48.05">
  <defs>
    <linearGradient id="linear-gradient" y1="0.5" x2="1" y2="0.5" gradientUnits="objectBoundingBox">
      <stop offset="0" stop-color="#8a0bff"/>
      <stop offset="1" stop-color="#2a0056"/>
    </linearGradient>
    <linearGradient id="linear-gradient-2" x1="-0.152" y1="0.338" x2="0.706" y2="0.629" gradientUnits="objectBoundingBox">
      <stop offset="0" stop-color="#8a0bff" stop-opacity="0"/>
      <stop offset="1" stop-color="#2a0056"/>
    </linearGradient>
    <linearGradient id="linear-gradient-3" x1="0.5" y1="1" x2="0.5" gradientUnits="objectBoundingBox">
      <stop offset="0" stop-color="#a553ff"/>
      <stop offset="0.999" stop-color="#ae38ff"/>
    </linearGradient>
    <linearGradient id="linear-gradient-4" x1="0.394" y1="0.535" x2="1.345" y2="0.667" gradientUnits="objectBoundingBox">
      <stop offset="0" stop-color="#af53ff"/>
      <stop offset="0.156" stop-color="#ae4dff" stop-opacity="0.796"/>
      <stop offset="0.388" stop-color="#ae45ff" stop-opacity="0.518"/>
      <stop offset="0.597" stop-color="#ae3fff" stop-opacity="0.294"/>
      <stop offset="0.775" stop-color="#ae3bff" stop-opacity="0.133"/>
      <stop offset="0.915" stop-color="#ae38ff" stop-opacity="0.035"/>
      <stop offset="1" stop-color="#ae38ff" stop-opacity="0"/>
    </linearGradient>
    <linearGradient id="linear-gradient-5" x1="-0.665" y1="0.233" x2="1.042" y2="0.684" gradientUnits="objectBoundingBox">
      <stop offset="0" stop-color="#8a0bff"/>
      <stop offset="0.999" stop-color="#2a0056" stop-opacity="0"/>
    </linearGradient>
    <linearGradient id="linear-gradient-6" y1="0.5" x2="1" y2="0.5" gradientUnits="objectBoundingBox">
      <stop offset="0" stop-color="#3d0056"/>
      <stop offset="1" stop-color="#ff0ba2"/>
    </linearGradient>
    <linearGradient id="linear-gradient-7" x1="0.482" y1="0.372" x2="1.071" y2="0.83" gradientUnits="objectBoundingBox">
      <stop offset="0" stop-color="#3d0056"/>
      <stop offset="1" stop-color="#e33fc5"/>
    </linearGradient>
    <linearGradient id="linear-gradient-8" x1="0.5" y1="1" x2="0.5" gradientUnits="objectBoundingBox">
      <stop offset="0" stop-color="#df38ff"/>
      <stop offset="1" stop-color="#ff39ff"/>
    </linearGradient>
    <linearGradient id="linear-gradient-9" x1="-0.27" y1="0.278" x2="1.444" y2="0.616" gradientUnits="objectBoundingBox">
      <stop offset="0" stop-color="#9e0082"/>
      <stop offset="1" stop-color="#ff39ff" stop-opacity="0"/>
    </linearGradient>
    <linearGradient id="linear-gradient-10" x1="-1.047" y1="1.792" x2="0.66" y2="2.243" xlink:href="#linear-gradient-5"/>
  </defs>
  <g id="Group_8195" data-name="Group 8195" transform="translate(-166.226 -77.895)">
    <g id="Group_8113" data-name="Group 8113" transform="translate(181.509 77.895)">
      <path id="Path_7346" data-name="Path 7346" d="M235.335,77.895h-7.59l15.612,22.721-7.806,11.869h9.191a3.861,3.861,0,0,0,3.233-1.5l5.5-8.364a3.46,3.46,0,0,0-.047-3.99l-12.5-18.186A6.788,6.788,0,0,0,235.335,77.895Z" transform="translate(-227.745 -77.895)" fill="url(#linear-gradient)"/>
      <path id="Path_7347" data-name="Path 7347" d="M235.335,77.895h-7.59l15.612,22.721-7.806,11.869h9.191a3.861,3.861,0,0,0,3.233-1.5l5.5-8.364a3.46,3.46,0,0,0-.047-3.99l-12.5-18.186A6.788,6.788,0,0,0,235.335,77.895Z" transform="translate(-227.745 -77.895)" fill="url(#linear-gradient-2)"/>
      <path id="Path_7348" data-name="Path 7348" d="M264.549,91.678c6.223,9.057,6.709,13.657,2.424,20.172l-7.806,11.869h9.191a3.862,3.862,0,0,0,3.233-1.5l5.5-8.364a3.46,3.46,0,0,0-.047-3.99Z" transform="translate(-251.361 -89.129)" fill="url(#linear-gradient-3)"/>
      <path id="Path_7349" data-name="Path 7349" d="M264.549,91.678c6.223,9.057,6.709,13.657,2.424,20.172l-7.806,11.869h9.191a3.862,3.862,0,0,0,3.233-1.5l5.5-8.364a3.46,3.46,0,0,0-.047-3.99Z" transform="translate(-251.361 -89.129)" fill="url(#linear-gradient-4)" style="mix-blend-mode: overlay;isolation: isolate"/>
      <path id="Path_7350" data-name="Path 7350" d="M291.708,167.4l-3.525-5.131c.241,2.939-.714,5.62-2.765,8.738l-6.741,10.248h4.344a3.861,3.861,0,0,0,3.233-1.5l5.5-8.364A3.46,3.46,0,0,0,291.708,167.4Z" transform="translate(-266.025 -146.668)" opacity="0.42" fill="url(#linear-gradient-5)"/>
    </g>
    <g id="Group_8114" data-name="Group 8114" transform="translate(166.226 91.355)">
      <path id="Path_7351" data-name="Path 7351" d="M184.976,185.269h7.59l-15.612-22.721,7.806-11.869h-9.191a3.861,3.861,0,0,0-3.233,1.5l-5.5,8.364a3.46,3.46,0,0,0,.047,3.99l12.5,18.186A6.788,6.788,0,0,0,184.976,185.269Z" transform="translate(-166.226 -150.679)" fill="url(#linear-gradient-6)"/>
      <path id="Path_7352" data-name="Path 7352" d="M184.976,185.269h7.59l-15.612-22.721,7.806-11.869h-9.191a3.861,3.861,0,0,0-3.233,1.5l-5.5,8.364a3.46,3.46,0,0,0,.047,3.99l12.5,18.186A6.788,6.788,0,0,0,184.976,185.269Z" transform="translate(-166.226 -150.679)" fill="url(#linear-gradient-7)"/>
      <path id="Path_7353" data-name="Path 7353" d="M179.378,182.72c-6.224-9.057-6.709-13.657-2.424-20.172l7.806-11.869h-9.191a3.861,3.861,0,0,0-3.233,1.5l-5.5,8.364a3.46,3.46,0,0,0,.047,3.99Z" transform="translate(-166.226 -150.679)" fill="url(#linear-gradient-8)"/>
      <path id="Path_7354" data-name="Path 7354" d="M179.378,182.72c-6.224-9.057-6.709-13.657-2.424-20.172l7.806-11.869h-9.191a3.861,3.861,0,0,0-3.233,1.5l-5.5,8.364a3.46,3.46,0,0,0,.047,3.99Z" transform="translate(-166.226 -150.679)" fill="url(#linear-gradient-9)"/>
      <path id="Path_7355" data-name="Path 7355" d="M166.883,164.534l3.526,5.131c-.241-2.939.714-5.62,2.764-8.738l6.74-10.248h-4.344a3.861,3.861,0,0,0-3.233,1.5l-5.5,8.364A3.46,3.46,0,0,0,166.883,164.534Z" transform="translate(-166.226 -150.679)" opacity="0.32" fill="url(#linear-gradient-10)"/>
    </g>
  </g>
</svg>
