<svg id="twotone-3d_rotation-24px" xmlns="http://www.w3.org/2000/svg" width="45.025" height="35.567" viewBox="0 0 45.025 35.567">
  <path id="Path_3914" data-name="Path 3914" d="M0,0H45.025V35.567H0Z" fill="none"/>
  <path id="Path_3915" data-name="Path 3915" d="M21.76,3H18.008V17.82H21.76Zm9.061,3.216-2.664,2.1a9.638,9.638,0,0,1,4.859,8.017c0,5.735-5.872,10.374-13.132,10.374S6.752,22.073,6.752,16.338a9.7,9.7,0,0,1,4.84-8.032L8.947,6.216C5.308,8.661,3,12.277,3,16.338,3,23.7,10.56,29.675,19.884,29.675S36.769,23.7,36.769,16.338C36.769,12.277,34.461,8.661,30.822,6.216Z" transform="translate(2.628 1.446)" fill="#fff"/>
</svg>
