<svg id="Group_8148" data-name="Group 8148" xmlns="http://www.w3.org/2000/svg" width="45.025" height="35.567" viewBox="0 0 45.025 35.567">
  <g id="baseline-more_vert-24px">
    <path id="Path_2016" data-name="Path 2016" d="M0,0H45.025V35.567H0Z" fill="none"/>
    <path id="Path_2017" data-name="Path 2017" d="M13.752,9.928c2.064,0,3.752-1.334,3.752-2.964S15.816,4,13.752,4,10,5.334,10,6.964,11.688,9.928,13.752,9.928Zm0,2.964c-2.064,0-3.752,1.334-3.752,2.964s1.688,2.964,3.752,2.964S17.5,17.486,17.5,15.856,15.816,12.892,13.752,12.892Zm0,8.892c-2.064,0-3.752,1.334-3.752,2.964s1.688,2.964,3.752,2.964S17.5,26.377,17.5,24.747,15.816,21.783,13.752,21.783Z" transform="translate(8.76 1.928)" fill="#e028db"/>
  </g>
</svg>
