<svg id="baseline-donut_small-24px" xmlns="http://www.w3.org/2000/svg" width="163.002" height="163.002" viewBox="0 0 163.002 163.002">
  <path id="Path_240" data-name="Path 240" d="M73.551,58.923V2C33.8,5.975,2,40.081,2,81.5S33.8,157.027,73.551,161V104.08C65.6,100.82,57.651,92,57.651,81.5S65.6,62.182,73.551,58.923Zm30.687,14.628H161C157.186,35.788,129.2,5.737,89.451,2V58.923C97.4,61.308,101.536,66.714,104.239,73.551ZM89.451,104.08V161C129.2,157.266,157.186,127.214,161,89.451H104.239c-2.7,6.837-6.837,12.243-14.787,14.628Z" fill="#e028db"/>
  <path id="Path_241" data-name="Path 241" d="M0,0H163V163H0Z" fill="none"/>
</svg>
