<svg id="baseline-donut_small-24px" xmlns="http://www.w3.org/2000/svg" width="67.439" height="67.439" viewBox="0 0 67.439 67.439">
  <path id="Trazado_240" data-name="Trazado 240" d="M27.29,22.119V2a28.256,28.256,0,0,0,0,56.2V38.08a9.121,9.121,0,0,1-5.62-7.98A9.121,9.121,0,0,1,27.29,22.119Zm10.846,5.17H58.2C56.85,13.942,46.959,3.321,32.909,2V22.119A7.887,7.887,0,0,1,38.136,27.29ZM32.909,38.08V58.2c14.05-1.321,23.941-11.942,25.29-25.29H38.136a7.887,7.887,0,0,1-5.227,5.17Z" transform="translate(3.62 3.62)" fill="#e028db"/>
  <path id="Trazado_241" data-name="Trazado 241" d="M0,0H67.439V67.439H0Z" fill="none"/>
</svg>
