<svg xmlns="http://www.w3.org/2000/svg" xmlns:xlink="http://www.w3.org/1999/xlink" width="59.938" height="69.191" viewBox="0 0 59.938 69.191">
  <defs>
    <linearGradient id="linear-gradient" y1="0.5" x2="1" y2="0.5" gradientUnits="objectBoundingBox">
      <stop offset="0" stop-color="#8a0bff"/>
      <stop offset="1" stop-color="#2a0056"/>
    </linearGradient>
    <linearGradient id="linear-gradient-2" x1="-0.152" y1="0.338" x2="0.706" y2="0.629" gradientUnits="objectBoundingBox">
      <stop offset="0" stop-color="#8a0bff" stop-opacity="0"/>
      <stop offset="1" stop-color="#2a0056"/>
    </linearGradient>
    <linearGradient id="linear-gradient-3" x1="0.5" y1="1" x2="0.5" gradientUnits="objectBoundingBox">
      <stop offset="0" stop-color="#a553ff"/>
      <stop offset="0.999" stop-color="#ae38ff"/>
    </linearGradient>
    <linearGradient id="linear-gradient-4" x1="0.394" y1="0.535" x2="1.345" y2="0.667" gradientUnits="objectBoundingBox">
      <stop offset="0" stop-color="#af53ff"/>
      <stop offset="0.156" stop-color="#ae4dff" stop-opacity="0.796"/>
      <stop offset="0.388" stop-color="#ae45ff" stop-opacity="0.518"/>
      <stop offset="0.597" stop-color="#ae3fff" stop-opacity="0.294"/>
      <stop offset="0.775" stop-color="#ae3bff" stop-opacity="0.133"/>
      <stop offset="0.915" stop-color="#ae38ff" stop-opacity="0.035"/>
      <stop offset="1" stop-color="#ae38ff" stop-opacity="0"/>
    </linearGradient>
    <linearGradient id="linear-gradient-5" x1="-0.665" y1="0.233" x2="1.042" y2="0.684" gradientUnits="objectBoundingBox">
      <stop offset="0" stop-color="#8a0bff"/>
      <stop offset="0.999" stop-color="#2a0056" stop-opacity="0"/>
    </linearGradient>
    <linearGradient id="linear-gradient-6" y1="0.5" x2="1" y2="0.5" gradientUnits="objectBoundingBox">
      <stop offset="0" stop-color="#3d0056"/>
      <stop offset="1" stop-color="#ff0ba2"/>
    </linearGradient>
    <linearGradient id="linear-gradient-7" x1="0.482" y1="0.372" x2="1.071" y2="0.83" gradientUnits="objectBoundingBox">
      <stop offset="0" stop-color="#3d0056"/>
      <stop offset="1" stop-color="#e33fc5"/>
    </linearGradient>
    <linearGradient id="linear-gradient-8" x1="0.5" y1="1" x2="0.5" gradientUnits="objectBoundingBox">
      <stop offset="0" stop-color="#df38ff"/>
      <stop offset="1" stop-color="#ff39ff"/>
    </linearGradient>
    <linearGradient id="linear-gradient-9" x1="-0.27" y1="0.278" x2="1.444" y2="0.616" gradientUnits="objectBoundingBox">
      <stop offset="0" stop-color="#9e0082"/>
      <stop offset="1" stop-color="#ff39ff" stop-opacity="0"/>
    </linearGradient>
    <linearGradient id="linear-gradient-10" x1="-1.047" y1="1.792" x2="0.66" y2="2.243" xlink:href="#linear-gradient-5"/>
  </defs>
  <g id="Grupo_8115" data-name="Grupo 8115" transform="translate(0 0)">
    <g id="Grupo_8113" data-name="Grupo 8113" transform="translate(22.008)">
      <path id="Trazado_7346" data-name="Trazado 7346" d="M238.675,77.895h-10.93l22.481,32.718L238.986,127.7H252.22a5.56,5.56,0,0,0,4.655-2.162L264.8,113.5a4.982,4.982,0,0,0-.067-5.746L246.735,81.565C245.187,79.312,242.074,77.895,238.675,77.895Z" transform="translate(-227.745 -77.895)" fill="url(#linear-gradient)"/>
      <path id="Trazado_7347" data-name="Trazado 7347" d="M238.675,77.895h-10.93l22.481,32.718L238.986,127.7H252.22a5.56,5.56,0,0,0,4.655-2.162L264.8,113.5a4.982,4.982,0,0,0-.067-5.746L246.735,81.565C245.187,79.312,242.074,77.895,238.675,77.895Z" transform="translate(-227.745 -77.895)" fill="url(#linear-gradient-2)"/>
      <path id="Trazado_7348" data-name="Trazado 7348" d="M266.916,91.678c8.962,13.042,9.661,19.666,3.491,29.048l-11.24,17.091H272.4a5.56,5.56,0,0,0,4.655-2.162l7.921-12.044a4.982,4.982,0,0,0-.067-5.746Z" transform="translate(-247.926 -88.008)" fill="url(#linear-gradient-3)"/>
      <path id="Trazado_7349" data-name="Trazado 7349" d="M266.916,91.678c8.962,13.042,9.661,19.666,3.491,29.048l-11.24,17.091H272.4a5.56,5.56,0,0,0,4.655-2.162l7.921-12.044a4.982,4.982,0,0,0-.067-5.746Z" transform="translate(-247.926 -88.008)" fill="url(#linear-gradient-4)" style="mix-blend-mode: overlay;isolation: isolate"/>
      <path id="Trazado_7350" data-name="Trazado 7350" d="M297.442,169.66l-5.077-7.388c.347,4.233-1.028,8.092-3.981,12.582l-9.706,14.757h6.255a5.56,5.56,0,0,0,4.655-2.162l7.921-12.044A4.982,4.982,0,0,0,297.442,169.66Z" transform="translate(-260.458 -139.803)" opacity="0.42" fill="url(#linear-gradient-5)"/>
    </g>
    <g id="Grupo_8114" data-name="Grupo 8114" transform="translate(0 19.382)">
      <path id="Trazado_7351" data-name="Trazado 7351" d="M193.226,200.488h10.93L181.675,167.77l11.241-17.091H179.68a5.56,5.56,0,0,0-4.655,2.162L167.1,164.884a4.982,4.982,0,0,0,.067,5.746l17.994,26.188C186.714,199.071,189.827,200.488,193.226,200.488Z" transform="translate(-166.226 -150.679)" fill="url(#linear-gradient-6)"/>
      <path id="Trazado_7352" data-name="Trazado 7352" d="M193.226,200.488h10.93L181.675,167.77l11.241-17.091H179.68a5.56,5.56,0,0,0-4.655,2.162L167.1,164.884a4.982,4.982,0,0,0,.067,5.746l17.994,26.188C186.714,199.071,189.827,200.488,193.226,200.488Z" transform="translate(-166.226 -150.679)" fill="url(#linear-gradient-7)"/>
      <path id="Trazado_7353" data-name="Trazado 7353" d="M185.166,196.818c-8.962-13.043-9.661-19.666-3.491-29.048l11.241-17.091H179.68a5.56,5.56,0,0,0-4.655,2.162L167.1,164.884a4.982,4.982,0,0,0,.067,5.746Z" transform="translate(-166.226 -150.679)" fill="url(#linear-gradient-8)"/>
      <path id="Trazado_7354" data-name="Trazado 7354" d="M185.166,196.818c-8.962-13.043-9.661-19.666-3.491-29.048l11.241-17.091H179.68a5.56,5.56,0,0,0-4.655,2.162L167.1,164.884a4.982,4.982,0,0,0,.067,5.746Z" transform="translate(-166.226 -150.679)" fill="url(#linear-gradient-9)"/>
      <path id="Trazado_7355" data-name="Trazado 7355" d="M167.172,170.63l5.077,7.388c-.347-4.233,1.028-8.092,3.981-12.582l9.706-14.757H179.68a5.56,5.56,0,0,0-4.655,2.162L167.1,164.884A4.982,4.982,0,0,0,167.172,170.63Z" transform="translate(-166.226 -150.679)" opacity="0.32" fill="url(#linear-gradient-10)"/>
    </g>
  </g>
</svg>
