<svg xmlns="http://www.w3.org/2000/svg" xmlns:xlink="http://www.w3.org/1999/xlink" width="21.331" height="24.624" viewBox="0 0 21.331 24.624">
  <defs>
    <linearGradient id="linear-gradient" y1="0.5" x2="1" y2="0.5" gradientUnits="objectBoundingBox">
      <stop offset="0" stop-color="#8a0bff"/>
      <stop offset="1" stop-color="#2a0056"/>
    </linearGradient>
    <linearGradient id="linear-gradient-2" x1="-0.152" y1="0.338" x2="0.706" y2="0.629" gradientUnits="objectBoundingBox">
      <stop offset="0" stop-color="#8a0bff" stop-opacity="0"/>
      <stop offset="1" stop-color="#2a0056"/>
    </linearGradient>
    <linearGradient id="linear-gradient-3" x1="0.5" y1="1" x2="0.5" gradientUnits="objectBoundingBox">
      <stop offset="0" stop-color="#a553ff"/>
      <stop offset="0.999" stop-color="#ae38ff"/>
    </linearGradient>
    <linearGradient id="linear-gradient-4" x1="0.394" y1="0.535" x2="1.345" y2="0.667" gradientUnits="objectBoundingBox">
      <stop offset="0" stop-color="#af53ff"/>
      <stop offset="0.156" stop-color="#ae4dff" stop-opacity="0.796"/>
      <stop offset="0.388" stop-color="#ae45ff" stop-opacity="0.518"/>
      <stop offset="0.597" stop-color="#ae3fff" stop-opacity="0.294"/>
      <stop offset="0.775" stop-color="#ae3bff" stop-opacity="0.133"/>
      <stop offset="0.915" stop-color="#ae38ff" stop-opacity="0.035"/>
      <stop offset="1" stop-color="#ae38ff" stop-opacity="0"/>
    </linearGradient>
    <linearGradient id="linear-gradient-5" x1="-0.665" y1="0.233" x2="1.042" y2="0.684" gradientUnits="objectBoundingBox">
      <stop offset="0" stop-color="#8a0bff"/>
      <stop offset="0.999" stop-color="#2a0056" stop-opacity="0"/>
    </linearGradient>
    <linearGradient id="linear-gradient-6" y1="0.5" x2="1" y2="0.5" gradientUnits="objectBoundingBox">
      <stop offset="0" stop-color="#3d0056"/>
      <stop offset="1" stop-color="#ff0ba2"/>
    </linearGradient>
    <linearGradient id="linear-gradient-7" x1="0.482" y1="0.372" x2="1.071" y2="0.83" gradientUnits="objectBoundingBox">
      <stop offset="0" stop-color="#3d0056"/>
      <stop offset="1" stop-color="#e33fc5"/>
    </linearGradient>
    <linearGradient id="linear-gradient-8" x1="0.5" y1="1" x2="0.5" gradientUnits="objectBoundingBox">
      <stop offset="0" stop-color="#df38ff"/>
      <stop offset="1" stop-color="#ff39ff"/>
    </linearGradient>
    <linearGradient id="linear-gradient-9" x1="-0.27" y1="0.278" x2="1.444" y2="0.616" gradientUnits="objectBoundingBox">
      <stop offset="0" stop-color="#9e0082"/>
      <stop offset="1" stop-color="#ff39ff" stop-opacity="0"/>
    </linearGradient>
    <linearGradient id="linear-gradient-10" x1="-1.047" y1="1.792" x2="0.66" y2="2.243" xlink:href="#linear-gradient-5"/>
  </defs>
  <g id="Group_8115" data-name="Group 8115" transform="translate(-166.226 -77.895)">
    <g id="Group_8113" data-name="Group 8113" transform="translate(174.058 77.895)">
      <path id="Path_7346" data-name="Path 7346" d="M231.635,77.895h-3.89l8,11.644-4,6.082h4.71a1.979,1.979,0,0,0,1.657-.769l2.819-4.286a1.773,1.773,0,0,0-.024-2.045l-6.4-9.32A3.478,3.478,0,0,0,231.635,77.895Z" transform="translate(-227.745 -77.895)" fill="url(#linear-gradient)"/>
      <path id="Path_7347" data-name="Path 7347" d="M231.635,77.895h-3.89l8,11.644-4,6.082h4.71a1.979,1.979,0,0,0,1.657-.769l2.819-4.286a1.773,1.773,0,0,0-.024-2.045l-6.4-9.32A3.478,3.478,0,0,0,231.635,77.895Z" transform="translate(-227.745 -77.895)" fill="url(#linear-gradient-2)"/>
      <path id="Path_7348" data-name="Path 7348" d="M261.925,91.678c3.189,4.642,3.438,7,1.242,10.337l-4,6.082h4.71a1.979,1.979,0,0,0,1.657-.769l2.819-4.286a1.773,1.773,0,0,0-.024-2.045Z" transform="translate(-255.167 -90.372)" fill="url(#linear-gradient-3)"/>
      <path id="Path_7349" data-name="Path 7349" d="M261.925,91.678c3.189,4.642,3.438,7,1.242,10.337l-4,6.082h4.71a1.979,1.979,0,0,0,1.657-.769l2.819-4.286a1.773,1.773,0,0,0-.024-2.045Z" transform="translate(-255.167 -90.372)" fill="url(#linear-gradient-4)" style="mix-blend-mode: overlay;isolation: isolate"/>
      <path id="Path_7350" data-name="Path 7350" d="M285.356,164.9l-1.807-2.629a6.906,6.906,0,0,1-1.417,4.478L278.678,172H280.9a1.979,1.979,0,0,0,1.657-.769l2.819-4.286A1.773,1.773,0,0,0,285.356,164.9Z" transform="translate(-272.194 -154.276)" opacity="0.42" fill="url(#linear-gradient-5)"/>
    </g>
    <g id="Group_8114" data-name="Group 8114" transform="translate(166.226 84.793)">
      <path id="Path_7351" data-name="Path 7351" d="M175.835,168.4h3.89l-8-11.644,4-6.082h-4.71a1.979,1.979,0,0,0-1.657.769l-2.819,4.286a1.773,1.773,0,0,0,.024,2.045l6.4,9.32A3.479,3.479,0,0,0,175.835,168.4Z" transform="translate(-166.226 -150.679)" fill="url(#linear-gradient-6)"/>
      <path id="Path_7352" data-name="Path 7352" d="M175.835,168.4h3.89l-8-11.644,4-6.082h-4.71a1.979,1.979,0,0,0-1.657.769l-2.819,4.286a1.773,1.773,0,0,0,.024,2.045l6.4,9.32A3.479,3.479,0,0,0,175.835,168.4Z" transform="translate(-166.226 -150.679)" fill="url(#linear-gradient-7)"/>
      <path id="Path_7353" data-name="Path 7353" d="M172.966,167.1c-3.189-4.642-3.438-7-1.242-10.337l4-6.082h-4.71a1.979,1.979,0,0,0-1.657.769l-2.819,4.286a1.773,1.773,0,0,0,.024,2.045Z" transform="translate(-166.226 -150.679)" fill="url(#linear-gradient-8)"/>
      <path id="Path_7354" data-name="Path 7354" d="M172.966,167.1c-3.189-4.642-3.438-7-1.242-10.337l4-6.082h-4.71a1.979,1.979,0,0,0-1.657.769l-2.819,4.286a1.773,1.773,0,0,0,.024,2.045Z" transform="translate(-166.226 -150.679)" fill="url(#linear-gradient-9)"/>
      <path id="Path_7355" data-name="Path 7355" d="M166.562,157.779l1.807,2.629a6.906,6.906,0,0,1,1.417-4.478l3.454-5.252h-2.226a1.979,1.979,0,0,0-1.657.769l-2.819,4.286A1.773,1.773,0,0,0,166.562,157.779Z" transform="translate(-166.226 -150.679)" opacity="0.32" fill="url(#linear-gradient-10)"/>
    </g>
  </g>
</svg>
